<?xml version="1.0" encoding="UTF-8"?><svg id="b" xmlns="http://www.w3.org/2000/svg" xmlns:xlink="http://www.w3.org/1999/xlink" viewBox="0 0 512 512"><defs><linearGradient id="c" x1="96.9" y1="117.05" x2="472.93" y2="445.45" gradientUnits="userSpaceOnUse"><stop offset="0" stop-color="#63e6d3"/><stop offset="1" stop-color="#a55ed6"/></linearGradient></defs><path d="M432.5,79.5C385.35,32.36,322.67,6.39,256,6.39S126.65,32.36,79.5,79.5,6.39,189.33,6.39,256s25.96,129.35,73.11,176.5c47.14,47.14,109.83,73.11,176.5,73.11s129.35-25.96,176.5-73.11c47.14-47.15,73.11-109.83,73.11-176.5s-25.96-129.35-73.11-176.5ZM256,477.78c-122.29,0-221.78-99.49-221.78-221.78S133.71,34.22,256,34.22s221.78,99.49,221.78,221.78-99.49,221.78-221.78,221.78ZM352.88,207.5c2.49-5.68,19.11-24.34,19.08-28.9-.02-3.75-7.4-5.79-10.13-7.75-.52-3.05,11.81-15.02,2.58-17.07-6.95-1.55-7.68,7.5-11.45,11.32-4.17-.99-9.27-7.3-13.44-3.44-1.95,4.83-15.1,28.87-14.27,31.99,1.01,3.77,7.33,3.88,7.39,6.48.02.98-8.49,15.8-9.24,15.03l-25.21-89.06c-2.11-6.91-6.24-11.07-13.67-11.73-20.58-1.84-43.86,1.44-64.73.03-4.44.44-8.12,3.58-10.56,7.15l-69.07,238.68c-1.47,14.03,10.23,23.95,23.79,22.61l.77,15.39h20.41c3.66-2.24,5.79-14.75,9.24-15.39l118.31.48,7.24,14.91h20.02l1.16-1.15v-14.23c15.04.79,25.41-7.82,23.87-23.45l-33.48-117.32-1.54.02-12.6,22.09c-.12,8.4,9.9,22.51,3.39,29.47-.84.9-4.53,3.04-5.43,3.04h-25.8l51.72-91.43c2.31-1.35,6.65,5.27,11.67,2.25ZM237.89,295.53l-1.16,1.15h-46.21c-3.04,0-8.2-4.73-8.12-8.08,12.57-48.63,26.95-97.32,41.62-145.37,3.38-4.95,8.5-4.36,13.87-4.23v156.52ZM244.59,153.01c1.56-.46,14.18-.51,16.02-.16,3.65.69,3.07,5.4-.79,6.14-2.27.43-11.38.34-13.79-.03-4.4-.68-4.7-4.99-1.43-5.95ZM259.02,221.26c-2.39.38-14.22.42-15.55-.9l-.88-3.91c.84-2.77,14.62-2.54,17.23-2.04,4.68.89,4.12,6.08-.8,6.86ZM259.32,233.89c-.67,3.58-9.44,3.58-11.74,1.98-2.16-1.5-1.4-4.5.86-5.17,2.46-.72,11.68-1.08,10.88,3.19ZM260.61,183.62c3.86.65,2.18,6.15.77,6.15h-16.94c-.38,0-2.01-1.93-1.96-2.73-.41-.98,1.4-3.42,1.96-3.42,4.56,0,12.1-.68,16.17,0ZM257.4,168.36c1.84.63,2.44,3.78,1.09,5.07-1.45,1.39-10.42,1.84-11.77-.58-2.74-5.4,7.78-5.49,10.68-4.5ZM259.33,202.32c-.34,4.3-13.45,4.41-13-.59.17-1.19.95-2.23,2.12-2.58,2.43-.72,11.19-.72,10.89,3.16ZM244.43,245.92c3.45,0,14.68-.7,16.94,0,2.37.73,2.12,6.15-.77,6.15h-16.17c-.38,0-2.01-1.93-1.96-2.73-.41-.98,1.4-3.42,1.96-3.42ZM257.4,267.33c-2.9.99-13.41.91-10.68-4.5,1.35-2.42,10.32-1.97,11.77-.58,1.35,1.29.74,4.44-1.09,5.07ZM262.16,282.08c-1.19,1.04-14.68,1.16-16.93.74-3.61-.69-3.93-5.07.15-5.96,2.22-.48,12.22-.57,14.44-.15,2.47.47,4.61,3.4,2.34,5.38ZM277.56,295.92l-9.64.76v-157.68c5.87-.29,11.28-.49,14.25,5.38l27.36,95.02-31.98,56.52Z" fill="url(#c)"/></svg>