<?xml version="1.0" encoding="UTF-8"?><svg id="b" xmlns="http://www.w3.org/2000/svg" xmlns:xlink="http://www.w3.org/1999/xlink" viewBox="0 0 512 512"><defs><linearGradient id="c" x1="133.62" y1="149.12" x2="422.86" y2="401.73" gradientUnits="userSpaceOnUse"><stop offset="0" stop-color="#63e6d3"/><stop offset="1" stop-color="#a55ed6"/></linearGradient></defs><path d="M391.76,120.24c-36.26-36.26-84.48-56.24-135.76-56.24s-99.5,19.97-135.76,56.24-56.24,84.48-56.24,135.76,19.97,99.5,56.24,135.76c36.26,36.26,84.48,56.24,135.76,56.24s99.5-19.97,135.76-56.24c36.26-36.26,56.24-84.48,56.24-135.76s-19.97-99.5-56.24-135.76ZM256,426.59c-94.07,0-170.59-76.53-170.59-170.59s76.53-170.59,170.59-170.59,170.59,76.53,170.59,170.59-76.53,170.59-170.59,170.59ZM330.52,218.7c1.92-4.37,14.7-18.72,14.68-22.23-.02-2.88-5.69-4.45-7.79-5.96-.4-2.35,9.08-11.55,1.98-13.13-5.34-1.19-5.91,5.77-8.81,8.7-3.21-.76-7.13-5.61-10.34-2.65-1.5,3.71-11.62,22.21-10.98,24.6.77,2.9,5.64,2.98,5.68,4.99.02.75-6.53,12.15-7.11,11.56l-19.39-68.5c-1.62-5.32-4.8-8.52-10.51-9.03-15.83-1.41-33.73,1.1-49.79.02-3.42.34-6.25,2.76-8.12,5.5l-53.13,183.59c-1.13,10.79,7.87,18.42,18.3,17.39l.59,11.84h15.7c2.81-1.73,4.45-11.34,7.11-11.84l91,.37,5.57,11.47h15.4l.89-.89v-10.95c11.57.61,19.54-6.01,18.36-18.04l-25.75-90.24-1.19.02-9.69,16.99c-.09,6.46,7.61,17.32,2.6,22.67-.65.69-3.48,2.34-4.18,2.34h-19.85l39.78-70.33c1.78-1.04,5.12,4.05,8.98,1.73ZM242.07,286.41l-.89.89h-35.55c-2.34,0-6.31-3.64-6.25-6.21,9.67-37.41,20.73-74.86,32.02-111.82,2.6-3.81,6.54-3.36,10.67-3.25v120.4ZM247.22,176.78c1.2-.35,10.91-.39,12.32-.12,2.81.53,2.36,4.15-.61,4.72-1.74.33-8.75.26-10.61-.03-3.38-.52-3.61-3.84-1.1-4.57ZM258.32,229.28c-1.83.29-10.94.32-11.96-.7l-.67-3.01c.65-2.13,11.25-1.95,13.25-1.57,3.6.69,3.17,4.68-.62,5.27ZM258.55,238.99c-.52,2.75-7.26,2.75-9.03,1.52-1.66-1.16-1.08-3.46.66-3.97,1.89-.56,8.98-.83,8.37,2.46ZM259.55,200.32c2.97.5,1.68,4.73.59,4.73h-13.03c-.29,0-1.55-1.49-1.51-2.1-.31-.76,1.08-2.63,1.51-2.63,3.51,0,9.31-.53,12.44,0ZM257.08,188.59c1.41.49,1.88,2.91.84,3.9-1.11,1.07-8.01,1.42-9.05-.44-2.1-4.16,5.98-4.22,8.21-3.46ZM258.56,214.71c-.26,3.31-10.35,3.39-10-.45.13-.92.73-1.72,1.63-1.98,1.87-.55,8.61-.55,8.37,2.43ZM247.1,248.25c2.65,0,11.29-.54,13.03,0,1.82.56,1.63,4.73-.59,4.73h-12.44c-.29,0-1.55-1.49-1.51-2.1-.31-.76,1.08-2.63,1.51-2.63ZM257.08,264.72c-2.23.77-10.32.7-8.21-3.46,1.04-1.86,7.94-1.51,9.05-.44,1.03,1,.57,3.42-.84,3.9ZM260.74,276.06c-.92.8-11.29.89-13.02.57-2.78-.53-3.02-3.9.12-4.58,1.71-.37,9.4-.44,11.11-.12,1.9.36,3.54,2.61,1.8,4.14ZM272.59,286.71l-7.41.58v-121.29c4.52-.22,8.68-.38,10.96,4.14l21.04,73.09-24.6,43.47Z" fill="url(#c)"/></svg>